<svg xmlns="http://www.w3.org/2000/svg" width="1600" height="360" viewBox="0 0 1600 360" role="img" aria-labelledby="title desc">
  <title id="title">Harsh Pandey — Software Engineer</title>
  <desc id="desc">Software Engineering, Full-Stack Development, AI/ML, Cloud and DevOps.</desc>
  <defs>
    <linearGradient id="bg" x1="0" y1="0" x2="1" y2="1">
      <stop offset="0%" stop-color="#24104f"/>
      <stop offset="24%" stop-color="#6a11cb"/>
      <stop offset="48%" stop-color="#2575fc"/>
      <stop offset="70%" stop-color="#00c9ff"/>
      <stop offset="86%" stop-color="#ff512f"/>
      <stop offset="100%" stop-color="#f9d423"/>
    </linearGradient>
    <linearGradient id="glass" x1="0" y1="0" x2="1" y2="1">
      <stop offset="0%" stop-color="#ffffff" stop-opacity="0.22"/>
      <stop offset="100%" stop-color="#ffffff" stop-opacity="0.04"/>
    </linearGradient>
    <filter id="blur"><feGaussianBlur stdDeviation="18"/></filter>
  </defs>
  <rect width="1600" height="360" rx="28" fill="url(#bg)"/>
  <circle cx="1320" cy="80" r="105" fill="#ffffff" opacity="0.10" filter="url(#blur)"/>
  <circle cx="1430" cy="280" r="130" fill="#ffdd55" opacity="0.12" filter="url(#blur)"/>
  <circle cx="240" cy="310" r="145" fill="#00e5ff" opacity="0.10" filter="url(#blur)"/>
  <path d="M0 315 C230 235 390 380 610 295 S1060 230 1600 315 L1600 360 L0 360 Z" fill="#0b1020" opacity="0.23"/>
  <g opacity="0.18" stroke="#fff" stroke-width="1">
    <path d="M110 0V360M210 0V360M310 0V360M410 0V360M510 0V360M610 0V360M710 0V360M810 0V360M910 0V360M1010 0V360M1110 0V360M1210 0V360M1310 0V360M1410 0V360M1510 0V360"/>
    <path d="M0 70H1600M0 140H1600M0 210H1600M0 280H1600"/>
  </g>
  <rect x="90" y="70" width="1420" height="220" rx="24" fill="url(#glass)" stroke="#ffffff" stroke-opacity="0.18"/>
  <text x="135" y="150" fill="#ffffff" font-family="Inter,Segoe UI,Arial,sans-serif" font-size="58" font-weight="800" letter-spacing="2">HARSH PANDEY</text>
  <text x="138" y="202" fill="#ffffff" fill-opacity="0.92" font-family="Inter,Segoe UI,Arial,sans-serif" font-size="22" font-weight="600" letter-spacing="1">SOFTWARE ENGINEERING  •  FULL-STACK  •  AI/ML  •  CLOUD  •  DEVOPS</text>
  <line x1="138" y1="226" x2="920" y2="226" stroke="#ffffff" stroke-opacity="0.35"/>
  <text x="138" y="258" fill="#ffffff" fill-opacity="0.78" font-family="Inter,Segoe UI,Arial,sans-serif" font-size="18">Building practical systems from interface to infrastructure.</text>
  <g transform="translate(1120 108)">
    <circle cx="85" cy="42" r="42" fill="#ffffff" fill-opacity="0.10" stroke="#ffffff" stroke-opacity="0.28"/>
    <circle cx="195" cy="42" r="42" fill="#ffffff" fill-opacity="0.10" stroke="#ffffff" stroke-opacity="0.28"/>
    <circle cx="305" cy="42" r="42" fill="#ffffff" fill-opacity="0.10" stroke="#ffffff" stroke-opacity="0.28"/>
    <circle cx="140" cy="140" r="42" fill="#ffffff" fill-opacity="0.10" stroke="#ffffff" stroke-opacity="0.28"/>
    <circle cx="250" cy="140" r="42" fill="#ffffff" fill-opacity="0.10" stroke="#ffffff" stroke-opacity="0.28"/>
    <path d="M85 84 L140 98 M195 84 L140 98 M195 84 L250 98 M305 84 L250 98" stroke="#ffffff" stroke-opacity="0.35" stroke-width="2"/>
    <text x="85" y="49" text-anchor="middle" fill="#fff" font-family="Inter,Segoe UI,Arial,sans-serif" font-size="14" font-weight="700">AI</text>
    <text x="195" y="49" text-anchor="middle" fill="#fff" font-family="Inter,Segoe UI,Arial,sans-serif" font-size="14" font-weight="700">WEB</text>
    <text x="305" y="49" text-anchor="middle" fill="#fff" font-family="Inter,Segoe UI,Arial,sans-serif" font-size="14" font-weight="700">CLOUD</text>
    <text x="140" y="147" text-anchor="middle" fill="#fff" font-family="Inter,Segoe UI,Arial,sans-serif" font-size="14" font-weight="700">DATA</text>
    <text x="250" y="147" text-anchor="middle" fill="#fff" font-family="Inter,Segoe UI,Arial,sans-serif" font-size="14" font-weight="700">DEVOPS</text>
  </g>
</svg>
