<svg xmlns="http://www.w3.org/2000/svg" width="760" height="420" viewBox="0 0 760 420" role="img" aria-labelledby="p-title p-desc">
<title id="p-title">new-portfolio</title><desc id="p-desc">A warm publishing desk for a public engineering practice.</desc>
<defs><linearGradient id="p-bg" x1="0" y1="0" x2="1" y2="1"><stop stop-color="#49352B"/><stop offset=".55" stop-color="#2A2520"/><stop offset="1" stop-color="#181915"/></linearGradient><linearGradient id="p-paper" x1="0" y1="0" x2="1" y2="1"><stop stop-color="#FFF2DB"/><stop offset="1" stop-color="#D7C09B"/></linearGradient><filter id="p-shadow" x="-30%" y="-30%" width="160%" height="160%"><feDropShadow dx="0" dy="14" stdDeviation="14" flood-color="#000" flood-opacity=".45"/></filter></defs>
<style><![CDATA[.p-page{animation:pPage 6s ease-in-out infinite;transform-origin:585px 220px}@keyframes pPage{0%,100%{transform:rotate(-3deg) translateY(0)}50%{transform:rotate(0deg) translateY(-6px)}}.p-line{stroke-dasharray:160;stroke-dashoffset:160;animation:pDraw 3.2s ease-out forwards}@keyframes pDraw{to{stroke-dashoffset:0}}.p-card{transition:filter .3s}.p-card:hover{filter:brightness(1.17)}@media(prefers-reduced-motion:reduce){.p-page,.p-line{animation:none}}]]></style>
<rect width="760" height="420" rx="28" fill="url(#p-bg)"/><path d="M34 70H726M34 350H726" stroke="#E7D7BE" stroke-opacity=".22"/>
<g font-family="Arial,sans-serif"><text x="38" y="44" fill="#D6F06A" font-size="11" font-weight="700" letter-spacing="2.4">04 / 04 · PUBLIC SURFACE</text><text x="722" y="44" text-anchor="end" fill="#D8C09E" font-size="11" letter-spacing="1.4">TS / REACT / VITE</text><text x="38" y="106" fill="#F6EAD5" font-family="Georgia,serif" font-size="33">new-portfolio</text><text x="38" y="142" fill="#F6EAD5" font-family="Georgia,serif" font-size="20" font-style="italic">The work, given somewhere to land.</text><text x="38" y="176" fill="#BFAF9A" font-size="13">A portfolio that behaves like a considered publication.</text></g>
<g class="p-card p-page" filter="url(#p-shadow)"><rect x="462" y="99" width="238" height="224" rx="7" fill="url(#p-paper)" transform="rotate(-3 581 211)"/><path d="M492 143h103M492 160h72" stroke="#7C2D2D" stroke-width="5" opacity=".75"/><path d="M492 200C529 175 544 242 576 211C608 180 626 239 671 184" fill="none" stroke="#B87445" stroke-width="3" class="p-line"/><rect x="492" y="260" width="98" height="14" rx="7" fill="#9BAE91"/><rect x="599" y="260" width="69" height="14" rx="7" fill="#D6F06A"/><circle cx="640" cy="137" r="18" fill="#7C2D2D"/><text x="640" y="142" text-anchor="middle" fill="#F6EAD5" font-size="15">HP</text><text x="492" y="306" fill="#7C2D2D" font-size="10" font-weight="700" letter-spacing="1.7">BUILD / LEARN / REPEAT</text></g>
<g font-family="Arial,sans-serif"><circle cx="42" cy="319" r="5" fill="#D6F06A"/><text x="58" y="323" fill="#E7D7BE" font-size="13">Case studies, experiments, and a little controlled chaos</text><text x="722" y="322" text-anchor="end" fill="#D6F06A" font-size="12" font-weight="700">OPEN REPOSITORY  ↗</text><text x="38" y="386" fill="#806C5A" font-size="11" letter-spacing="1.8">DESIGNED AS A PLACE TO KEEP LOOKING</text></g>
</svg>
