<svg xmlns="http://www.w3.org/2000/svg" width="1600" height="600" viewBox="0 0 1600 600"><defs>
<linearGradient id="trd-bg" x1="0" y1="0" x2="0" y2="1"><stop offset="0%" stop-color="#211C1A"/><stop offset="100%" stop-color="#111615"/></linearGradient>
<linearGradient id="trd-bd" x1="0" y1="0" x2="1" y2="0"><stop offset="0%" stop-color="#D6F06A" stop-opacity="0.6"/><stop offset="40%" stop-color="#B87445" stop-opacity="0.35"/><stop offset="75%" stop-color="#7C2D2D" stop-opacity="0.35"/><stop offset="100%" stop-color="#9BAE91" stop-opacity="0.45"/></linearGradient>
<linearGradient id="trd-gl" x1="0" y1="0" x2="1" y2="1"><stop offset="0%" stop-color="#F6EAD5" stop-opacity="0.08"/><stop offset="100%" stop-color="#F6EAD5" stop-opacity="0.015"/></linearGradient>
<radialGradient id="trd-gC" cx="50%" cy="50%" r="50%"><stop offset="0%" stop-color="#D6F06A" stop-opacity="0.14"/><stop offset="100%" stop-color="#D6F06A" stop-opacity="0"/></radialGradient>
<radialGradient id="trd-gV" cx="50%" cy="50%" r="50%"><stop offset="0%" stop-color="#7C2D2D" stop-opacity="0.18"/><stop offset="100%" stop-color="#7C2D2D" stop-opacity="0"/></radialGradient>
<pattern id="trd-gr" width="44" height="44" patternUnits="userSpaceOnUse"><path d="M44 0H0V44" fill="none" stroke="#D8C09E" stroke-opacity="0.08"/><circle cx="0" cy="0" r="1.2" fill="#D6F06A" fill-opacity="0.18"/></pattern>
</defs>
<style><![CDATA[
.bar{animation:bU 1.6s ease-out both;transform-box:fill-box}
@keyframes bU{from{transform:scaleY(0)}to{transform:scaleY(1)}}
.draw{stroke-dasharray:1400;stroke-dashoffset:1400;animation:dL 2.6s ease-out forwards}
@keyframes dL{to{stroke-dashoffset:0}}
.fade{animation:fI 1s ease-out both}
@keyframes fI{from{opacity:0;transform:translateY(8px)}to{opacity:1;transform:none}}
.pulse{animation:pL 2.2s ease-in-out infinite}
@keyframes pL{0%,100%{opacity:1}50%{opacity:.35}}
.donut{animation:dR 2s ease-out both;transform-origin:center;transform-box:fill-box}
@keyframes dR{from{transform:rotate(-90deg) scale(.94);opacity:0}to{transform:rotate(0) scale(1);opacity:1}}
]]></style><rect width="1600" height="600" rx="26" fill="url(#trd-bg)" stroke="url(#trd-bd)" stroke-width="1.5"/>
<rect width="1600" height="600" rx="26" fill="url(#trd-gl)"/>
<rect width="1600" height="600" rx="26" fill="url(#trd-gr)" opacity="0.55"/>
<ellipse cx="300" cy="30" rx="380" ry="120" fill="url(#trd-gC)"/><ellipse cx="1300" cy="30" rx="420" ry="120" fill="url(#trd-gV)"/>
<text x="48" y="62" fill="#F6EAD5" font-family="Inter,Arial" font-size="30" font-weight="800">〜  Activity trends — monthly, weekly, repository growth</text>
<text x="1552" y="62" text-anchor="end" fill="#BFAF9A" font-family="Inter,Arial" font-size="17">@harshpandeyz • live from GitHub API</text>
<line x1="48" y1="84" x2="1552" y2="84" stroke="#D8C09E" stroke-opacity="0.2"/>
<text x="80" y="124" fill="#BFAF9A" font-family="Inter,Arial" font-size="14" letter-spacing="1.5">YEARLY / MONTHLY CONTRIBUTIONS</text>
<polygon points="80,430 80.0,384.1 141.8,385.6 203.6,360.0 265.5,302.1 327.3,190.0 389.1,211.1 450.9,378.1 512.7,293.8 574.5,430.0 636.4,430.0 698.2,223.1 760.0,332.2 760,430" fill="#B87445" opacity="0.14"/>
<polyline points="80.0,384.1 141.8,385.6 203.6,360.0 265.5,302.1 327.3,190.0 389.1,211.1 450.9,378.1 512.7,293.8 574.5,430.0 636.4,430.0 698.2,223.1 760.0,332.2" fill="none" stroke="url(#trd-bd)" stroke-width="3.5" stroke-linecap="round" class="draw"/><g class="bar" style="animation-delay:0ms;transform-origin:80px 430px"><rect x="58.0" y="384" width="44" height="46" rx="8" fill="#B87445" opacity="0.51"><title>Oct: 61 contributions</title></rect></g><g class="bar" style="animation-delay:60ms;transform-origin:141.8181818181818px 430px"><rect x="119.8" y="386" width="44" height="44" rx="8" fill="#B87445" opacity="0.51"><title>Nov: 59 contributions</title></rect></g><g class="bar" style="animation-delay:120ms;transform-origin:203.63636363636363px 430px"><rect x="181.6" y="360" width="44" height="70" rx="8" fill="#B87445" opacity="0.57"><title>Dec: 93 contributions</title></rect></g><g class="bar" style="animation-delay:180ms;transform-origin:265.45454545454544px 430px"><rect x="243.5" y="302" width="44" height="128" rx="8" fill="#B87445" opacity="0.72"><title>Jan: 170 contributions</title></rect></g><g class="bar" style="animation-delay:240ms;transform-origin:327.27272727272725px 430px"><rect x="305.3" y="190" width="44" height="240" rx="8" fill="#B87445" opacity="1.00"><title>Feb: 319 contributions</title></rect></g><g class="bar" style="animation-delay:300ms;transform-origin:389.09090909090907px 430px"><rect x="367.1" y="211" width="44" height="219" rx="8" fill="#B87445" opacity="0.95"><title>Mar: 291 contributions</title></rect></g><g class="bar" style="animation-delay:360ms;transform-origin:450.9090909090909px 430px"><rect x="428.9" y="378" width="44" height="52" rx="8" fill="#B87445" opacity="0.53"><title>Apr: 69 contributions</title></rect></g><g class="bar" style="animation-delay:420ms;transform-origin:512.7272727272727px 430px"><rect x="490.7" y="294" width="44" height="136" rx="8" fill="#B87445" opacity="0.74"><title>May: 181 contributions</title></rect></g><g class="bar" style="animation-delay:480ms;transform-origin:574.5454545454545px 430px"><rect x="552.5" y="422" width="44" height="8" rx="8" fill="#B87445" opacity="0.40"><title>Jun: 0 contributions</title></rect></g><g class="bar" style="animation-delay:540ms;transform-origin:636.3636363636364px 430px"><rect x="614.4" y="422" width="44" height="8" rx="8" fill="#B87445" opacity="0.40"><title>Jul: 0 contributions</title></rect></g><g class="bar" style="animation-delay:600ms;transform-origin:698.1818181818181px 430px"><rect x="676.2" y="223" width="44" height="207" rx="8" fill="#B87445" opacity="0.92"><title>Aug: 275 contributions</title></rect></g><g class="bar" style="animation-delay:660ms;transform-origin:760px 430px"><rect x="738.0" y="332" width="44" height="98" rx="8" fill="#D6F06A" opacity="0.64"><title>Sep: 130 contributions</title></rect></g>
<text x="80" y="470" fill="#F6EAD5" font-family="Inter,Arial" font-size="16">Peak 319/mo • Total 1,707/yr</text>
<line x1="820" y1="110" x2="820" y2="570" stroke="#D8C09E" stroke-opacity="0.16"/>
<text x="880" y="124" fill="#BFAF9A" font-family="Inter,Arial" font-size="14" letter-spacing="1.5">26-WEEK RHYTHM • CONTRIBUTIONS / WEEK</text>
<polygon points="880,300 880.0,261.7 905.6,257.2 931.2,255.0 956.8,284.2 982.4,294.4 1008.0,292.1 1033.6,157.0 1059.2,253.8 1084.8,296.6 1110.4,261.7 1136.0,300.0 1161.6,300.0 1187.2,300.0 1212.8,300.0 1238.4,300.0 1264.0,300.0 1289.6,300.0 1315.2,300.0 1340.8,300.0 1366.4,300.0 1392.0,300.0 1417.6,258.3 1443.2,227.9 1468.8,130.0 1494.4,211.1 1520.0,216.7 1520,300" fill="#9BAE91" opacity="0.10"/>
<polyline points="880.0,261.7 905.6,257.2 931.2,255.0 956.8,284.2 982.4,294.4 1008.0,292.1 1033.6,157.0 1059.2,253.8 1084.8,296.6 1110.4,261.7 1136.0,300.0 1161.6,300.0 1187.2,300.0 1212.8,300.0 1238.4,300.0 1264.0,300.0 1289.6,300.0 1315.2,300.0 1340.8,300.0 1366.4,300.0 1392.0,300.0 1417.6,258.3 1443.2,227.9 1468.8,130.0 1494.4,211.1 1520.0,216.7" fill="none" stroke="#9BAE91" stroke-width="3" stroke-linecap="round" class="draw"/>
<circle cx="880.0" cy="261.7" r="3.5" fill="#B87445"><title>Week 1: 34</title></circle><circle cx="905.6" cy="257.2" r="3.5" fill="#B87445"><title>Week 2: 38</title></circle><circle cx="931.2" cy="255.0" r="3.5" fill="#B87445"><title>Week 3: 40</title></circle><circle cx="956.8" cy="284.2" r="3.5" fill="#B87445"><title>Week 4: 14</title></circle><circle cx="982.4" cy="294.4" r="3.5" fill="#B87445"><title>Week 5: 5</title></circle><circle cx="1008.0" cy="292.1" r="3.5" fill="#B87445"><title>Week 6: 7</title></circle><circle cx="1033.6" cy="157.0" r="3.5" fill="#B87445"><title>Week 7: 127</title></circle><circle cx="1059.2" cy="253.8" r="3.5" fill="#B87445"><title>Week 8: 41</title></circle><circle cx="1084.8" cy="296.6" r="3.5" fill="#B87445"><title>Week 9: 3</title></circle><circle cx="1110.4" cy="261.7" r="3.5" fill="#B87445"><title>Week 10: 34</title></circle><circle cx="1136.0" cy="300.0" r="3.5" fill="#B87445"><title>Week 11: 0</title></circle><circle cx="1161.6" cy="300.0" r="3.5" fill="#B87445"><title>Week 12: 0</title></circle><circle cx="1187.2" cy="300.0" r="3.5" fill="#B87445"><title>Week 13: 0</title></circle><circle cx="1212.8" cy="300.0" r="3.5" fill="#B87445"><title>Week 14: 0</title></circle><circle cx="1238.4" cy="300.0" r="3.5" fill="#B87445"><title>Week 15: 0</title></circle><circle cx="1264.0" cy="300.0" r="3.5" fill="#B87445"><title>Week 16: 0</title></circle><circle cx="1289.6" cy="300.0" r="3.5" fill="#B87445"><title>Week 17: 0</title></circle><circle cx="1315.2" cy="300.0" r="3.5" fill="#B87445"><title>Week 18: 0</title></circle><circle cx="1340.8" cy="300.0" r="3.5" fill="#B87445"><title>Week 19: 0</title></circle><circle cx="1366.4" cy="300.0" r="3.5" fill="#B87445"><title>Week 20: 0</title></circle><circle cx="1392.0" cy="300.0" r="3.5" fill="#B87445"><title>Week 21: 0</title></circle><circle cx="1417.6" cy="258.3" r="3.5" fill="#B87445"><title>Week 22: 37</title></circle><circle cx="1443.2" cy="227.9" r="3.5" fill="#B87445"><title>Week 23: 64</title></circle><circle cx="1468.8" cy="130.0" r="3.5" fill="#B87445"><title>Week 24: 151</title></circle><circle cx="1494.4" cy="211.1" r="3.5" fill="#B87445"><title>Week 25: 79</title></circle><circle cx="1520.0" cy="216.7" r="7" fill="#D6F06A"><title>Week 26: 74</title><animate attributeName="r" values="7;9.5;7" dur="1.8s" repeatCount="indefinite"/></circle>
<text x="880" y="336" fill="#F6EAD5" font-family="Inter,Arial" font-size="16">Peak 151/wk • Avg 28.8/wk</text>
<text x="880" y="380" fill="#BFAF9A" font-family="Inter,Arial" font-size="14" letter-spacing="1.5">REPOSITORY GROWTH • REPOS UPDATED / QUARTER</text><rect x="880" y="535" width="52" height="5" rx="7" fill="#7C2D2D" opacity="0.40"><title>Q4 '24: 0 repos updated</title></rect><text x="906" y="560" text-anchor="middle" fill="#806C5A" font-family="Inter,Arial" font-size="12">Q4 '24</text><rect x="960" y="535" width="52" height="5" rx="7" fill="#7C2D2D" opacity="0.40"><title>Q1 '25: 0 repos updated</title></rect><text x="986" y="560" text-anchor="middle" fill="#806C5A" font-family="Inter,Arial" font-size="12">Q1 '25</text><rect x="1040" y="535" width="52" height="5" rx="7" fill="#7C2D2D" opacity="0.40"><title>Q2 '25: 0 repos updated</title></rect><text x="1066" y="560" text-anchor="middle" fill="#806C5A" font-family="Inter,Arial" font-size="12">Q2 '25</text><rect x="1120" y="535" width="52" height="5" rx="7" fill="#7C2D2D" opacity="0.40"><title>Q3 '25: 0 repos updated</title></rect><text x="1146" y="560" text-anchor="middle" fill="#806C5A" font-family="Inter,Arial" font-size="12">Q3 '25</text><rect x="1200" y="535" width="52" height="5" rx="7" fill="#7C2D2D" opacity="0.40"><title>Q4 '25: 0 repos updated</title></rect><text x="1226" y="560" text-anchor="middle" fill="#806C5A" font-family="Inter,Arial" font-size="12">Q4 '25</text><rect x="1280" y="535" width="52" height="5" rx="7" fill="#7C2D2D" opacity="0.40"><title>Q1 '26: 0 repos updated</title></rect><text x="1306" y="560" text-anchor="middle" fill="#806C5A" font-family="Inter,Arial" font-size="12">Q1 '26</text><rect x="1360" y="522" width="52" height="18" rx="7" fill="#7C2D2D" opacity="0.52"><title>Q2 '26: 3 repos updated</title></rect><text x="1386" y="560" text-anchor="middle" fill="#806C5A" font-family="Inter,Arial" font-size="12">Q2 '26</text><rect x="1440" y="450" width="52" height="90" rx="7" fill="#7C2D2D" opacity="1.00"><title>Q3 '26: 15 repos updated</title></rect><text x="1466" y="560" text-anchor="middle" fill="#806C5A" font-family="Inter,Arial" font-size="12">Q3 '26</text>
<text x="1520" y="500" text-anchor="end" fill="#806C5A" font-family="Inter,Arial" font-size="12">newest 100 repos • 2026-09-10 UTC</text></svg>